<?xml version="1.0" encoding="UTF-8" standalone="no"?>
<!DOCTYPE svg PUBLIC "-//W3C//DTD SVG 1.1//EN"
 "http://www.w3.org/Graphics/SVG/1.1/DTD/svg11.dtd">
<!-- Generated by graphviz version 2.28.0 (20121021.1419)
 -->
<!-- Title: _anonymous_0 Pages: 1 -->
<svg width="1908pt" height="476pt"
 viewBox="0.00 0.00 1907.89 476.00" xmlns="http://www.w3.org/2000/svg" xmlns:xlink="http://www.w3.org/1999/xlink">
<g id="graph1" class="graph" transform="scale(1 1) rotate(0) translate(4 472)">
<title>_anonymous_0</title>
<polygon fill="white" stroke="white" points="-4,5 -4,-472 1904.89,-472 1904.89,5 -4,5"/>
<!-- Bush -->
<g id="node1" class="node"><title>Bush</title>
<ellipse fill="none" stroke="black" cx="961.646" cy="-450" rx="30.5947" ry="18"/>
<text text-anchor="middle" x="961.646" y="-446.3" font-family="Times,serif" font-size="14.00">Bush</text>
</g>
<!-- Cheney -->
<g id="node2" class="node"><title>Cheney</title>
<ellipse fill="none" stroke="black" cx="39.6465" cy="-234" rx="39.7935" ry="18"/>
<text text-anchor="middle" x="39.6465" y="-230.3" font-family="Times,serif" font-size="14.00">Cheney</text>
</g>
<!-- Bush&#45;&gt;Cheney -->
<g id="edge2" class="edge"><title>Bush&#45;&gt;Cheney</title>
<path fill="none" stroke="black" d="M934.056,-442.6C803.436,-412.28 246.866,-283.1 84.3615,-245.38"/>
<polygon fill="black" stroke="black" points="84.7689,-241.882 74.2365,-243.03 83.1862,-248.7 84.7689,-241.882"/>
</g>
<!-- Wolfowitz -->
<g id="node4" class="node"><title>Wolfowitz</title>
<ellipse fill="none" stroke="black" cx="309.646" cy="-234" rx="50.8918" ry="18"/>
<text text-anchor="middle" x="309.646" y="-230.3" font-family="Times,serif" font-size="14.00">Wolfowitz</text>
</g>
<!-- Bush&#45;&gt;Wolfowitz -->
<g id="edge4" class="edge"><title>Bush&#45;&gt;Wolfowitz</title>
<path fill="none" stroke="black" d="M935.686,-440.48C836.756,-408.01 482.596,-291.77 355.476,-250.04"/>
<polygon fill="black" stroke="black" points="356.249,-246.61 345.656,-246.82 354.068,-253.262 356.249,-246.61"/>
</g>
<!-- Ashcroft -->
<g id="node6" class="node"><title>Ashcroft</title>
<ellipse fill="none" stroke="black" cx="583.646" cy="-234" rx="43.5923" ry="18"/>
<text text-anchor="middle" x="583.646" y="-230.3" font-family="Times,serif" font-size="14.00">Ashcroft</text>
</g>
<!-- Bush&#45;&gt;Ashcroft -->
<g id="edge6" class="edge"><title>Bush&#45;&gt;Ashcroft</title>
<path fill="none" stroke="black" d="M940.516,-437.04C877.916,-401.6 693.076,-296.95 616.966,-253.87"/>
<polygon fill="black" stroke="black" points="618.672,-250.814 608.246,-248.93 615.222,-256.904 618.672,-250.814"/>
</g>
<!-- Rice -->
<g id="node8" class="node"><title>Rice</title>
<ellipse fill="none" stroke="black" cx="834.646" cy="-234" rx="27.0966" ry="18"/>
<text text-anchor="middle" x="834.646" y="-230.3" font-family="Times,serif" font-size="14.00">Rice</text>
</g>
<!-- Bush&#45;&gt;Rice -->
<g id="edge8" class="edge"><title>Bush&#45;&gt;Rice</title>
<path fill="none" stroke="black" d="M952.096,-432.92C930.076,-395.8 875.576,-303.97 849.286,-259.67"/>
<polygon fill="black" stroke="black" points="852.242,-257.791 844.126,-250.98 846.223,-261.365 852.242,-257.791"/>
</g>
<!-- Rumsfeld -->
<g id="node10" class="node"><title>Rumsfeld</title>
<ellipse fill="none" stroke="black" cx="1088.65" cy="-234" rx="46.5926" ry="18"/>
<text text-anchor="middle" x="1088.65" y="-230.3" font-family="Times,serif" font-size="14.00">Rumsfeld</text>
</g>
<!-- Bush&#45;&gt;Rumsfeld -->
<g id="edge10" class="edge"><title>Bush&#45;&gt;Rumsfeld</title>
<path fill="none" stroke="black" d="M971.196,-432.92C993.056,-396.07 1046.95,-305.31 1073.45,-260.66"/>
<polygon fill="black" stroke="black" points="1076.57,-262.25 1078.65,-251.86 1070.55,-258.689 1076.57,-262.25"/>
</g>
<!-- Powell -->
<g id="node12" class="node"><title>Powell</title>
<ellipse fill="none" stroke="black" cx="1352.65" cy="-234" rx="37.0935" ry="18"/>
<text text-anchor="middle" x="1352.65" y="-230.3" font-family="Times,serif" font-size="14.00">Powell</text>
</g>
<!-- Bush&#45;&gt;Powell -->
<g id="edge12" class="edge"><title>Bush&#45;&gt;Powell</title>
<path fill="none" stroke="black" d="M983.226,-437.19C1048.25,-401.62 1242.45,-295.32 1320.05,-252.84"/>
<polygon fill="black" stroke="black" points="1321.85,-255.845 1328.95,-247.98 1318.49,-249.701 1321.85,-255.845"/>
</g>
<!-- Whitman -->
<g id="node14" class="node"><title>Whitman</title>
<ellipse fill="none" stroke="black" cx="1615.65" cy="-234" rx="45.4919" ry="18"/>
<text text-anchor="middle" x="1615.65" y="-230.3" font-family="Times,serif" font-size="14.00">Whitman</text>
</g>
<!-- Bush&#45;&gt;Whitman -->
<g id="edge14" class="edge"><title>Bush&#45;&gt;Whitman</title>
<path fill="none" stroke="black" d="M987.686,-440.48C1087.65,-407.78 1447.15,-290.14 1572.35,-249.18"/>
<polygon fill="black" stroke="black" points="1573.54,-252.471 1581.95,-246.02 1571.35,-245.822 1573.54,-252.471"/>
</g>
<!-- Card -->
<g id="node16" class="node"><title>Card</title>
<ellipse fill="none" stroke="black" cx="1870.65" cy="-234" rx="29.4969" ry="18"/>
<text text-anchor="middle" x="1870.65" y="-230.3" font-family="Times,serif" font-size="14.00">Card</text>
</g>
<!-- Bush&#45;&gt;Card -->
<g id="edge16" class="edge"><title>Bush&#45;&gt;Card</title>
<path fill="none" stroke="black" d="M989.346,-442.48C1120.95,-411.49 1683.05,-279.16 1833.55,-243.75"/>
<polygon fill="black" stroke="black" points="1834.72,-247.07 1843.65,-241.37 1833.11,-240.257 1834.72,-247.07"/>
</g>
<!-- Libby -->
<g id="node18" class="node"><title>Libby</title>
<ellipse fill="none" stroke="black" cx="39.6465" cy="-18" rx="33.5952" ry="18"/>
<text text-anchor="middle" x="39.6465" y="-14.3" font-family="Times,serif" font-size="14.00">Libby</text>
</g>
<!-- Cheney&#45;&gt;Libby -->
<g id="edge18" class="edge"><title>Cheney&#45;&gt;Libby</title>
<path fill="none" stroke="black" d="M39.6465,-215.85C39.6465,-178.83 39.6465,-91.181 39.6465,-46.386"/>
<polygon fill="black" stroke="black" points="43.1466,-46.232 39.6465,-36.232 36.1466,-46.232 43.1466,-46.232"/>
</g>
<!-- Myers -->
<g id="node20" class="node"><title>Myers</title>
<ellipse fill="none" stroke="black" cx="848.646" cy="-18" rx="34.394" ry="18"/>
<text text-anchor="middle" x="848.646" y="-14.3" font-family="Times,serif" font-size="14.00">Myers</text>
</g>
<!-- Rumsfeld&#45;&gt;Myers -->
<g id="edge20" class="edge"><title>Rumsfeld&#45;&gt;Myers</title>
<path fill="none" stroke="black" d="M1071.05,-217.26C1028.65,-179.5 921.196,-83.691 872.856,-40.589"/>
<polygon fill="black" stroke="black" points="875.149,-37.944 865.356,-33.9 870.49,-43.1682 875.149,-37.944"/>
</g>
<!-- Feith -->
<g id="node22" class="node"><title>Feith</title>
<ellipse fill="none" stroke="black" cx="1092.65" cy="-18" rx="29.795" ry="18"/>
<text text-anchor="middle" x="1092.65" y="-14.3" font-family="Times,serif" font-size="14.00">Feith</text>
</g>
<!-- Rumsfeld&#45;&gt;Feith -->
<g id="edge22" class="edge"><title>Rumsfeld&#45;&gt;Feith</title>
<path fill="none" stroke="black" d="M1088.95,-215.85C1089.65,-178.83 1091.35,-91.181 1092.15,-46.386"/>
<polygon fill="black" stroke="black" points="1095.65,-46.299 1092.35,-36.232 1088.65,-46.1611 1095.65,-46.299"/>
</g>
<!-- Armitage -->
<g id="node24" class="node"><title>Armitage</title>
<ellipse fill="none" stroke="black" cx="1352.65" cy="-18" rx="46.2923" ry="18"/>
<text text-anchor="middle" x="1352.65" y="-14.3" font-family="Times,serif" font-size="14.00">Armitage</text>
</g>
<!-- Powell&#45;&gt;Armitage -->
<g id="edge24" class="edge"><title>Powell&#45;&gt;Armitage</title>
<path fill="none" stroke="black" d="M1352.65,-215.85C1352.65,-178.83 1352.65,-91.181 1352.65,-46.386"/>
<polygon fill="black" stroke="black" points="1356.15,-46.232 1352.65,-36.232 1349.15,-46.232 1356.15,-46.232"/>
</g>
</g>
</svg>
