<?xml version="1.0" encoding="UTF-8" standalone="no"?>
<!DOCTYPE svg PUBLIC "-//W3C//DTD SVG 1.1//EN"
 "http://www.w3.org/Graphics/SVG/1.1/DTD/svg11.dtd">
<!-- Generated by graphviz version 2.28.0 (20121021.1419)
 -->
<!-- Title: _anonymous_0 Pages: 1 -->
<svg width="2139pt" height="476pt"
 viewBox="0.00 0.00 2138.54 476.00" xmlns="http://www.w3.org/2000/svg" xmlns:xlink="http://www.w3.org/1999/xlink">
<g id="graph1" class="graph" transform="scale(1 1) rotate(0) translate(4 472)">
<title>_anonymous_0</title>
<polygon fill="white" stroke="white" points="-4,5 -4,-472 2135.54,-472 2135.54,5 -4,5"/>
<!-- Bush -->
<g id="node1" class="node"><title>Bush</title>
<ellipse fill="none" stroke="black" cx="39.6465" cy="-450" rx="30.5947" ry="18"/>
<text text-anchor="middle" x="39.6465" y="-446.3" font-family="Times,serif" font-size="14.00">Bush</text>
</g>
<!-- Cheney -->
<g id="node2" class="node"><title>Cheney</title>
<ellipse fill="none" stroke="black" cx="39.6465" cy="-234" rx="39.7935" ry="18"/>
<text text-anchor="middle" x="39.6465" y="-230.3" font-family="Times,serif" font-size="14.00">Cheney</text>
</g>
<!-- Bush&#45;&gt;Cheney -->
<g id="edge2" class="edge"><title>Bush&#45;&gt;Cheney</title>
<path fill="none" stroke="black" d="M39.6465,-431.85C39.6465,-394.83 39.6465,-307.18 39.6465,-262.39"/>
<polygon fill="black" stroke="black" points="43.1466,-262.23 39.6465,-252.23 36.1466,-262.23 43.1466,-262.23"/>
</g>
<!-- Libby -->
<g id="node4" class="node"><title>Libby</title>
<ellipse fill="none" stroke="black" cx="39.6465" cy="-18" rx="33.5952" ry="18"/>
<text text-anchor="middle" x="39.6465" y="-14.3" font-family="Times,serif" font-size="14.00">Libby</text>
</g>
<!-- Cheney&#45;&gt;Libby -->
<g id="edge4" class="edge"><title>Cheney&#45;&gt;Libby</title>
<path fill="none" stroke="black" d="M39.6465,-215.85C39.6465,-178.83 39.6465,-91.181 39.6465,-46.386"/>
<polygon fill="black" stroke="black" points="43.1466,-46.232 39.6465,-36.232 36.1466,-46.232 43.1466,-46.232"/>
</g>
<!-- Rumsfeld -->
<g id="node6" class="node"><title>Rumsfeld</title>
<ellipse fill="none" stroke="black" cx="296.646" cy="-450" rx="46.5926" ry="18"/>
<text text-anchor="middle" x="296.646" y="-446.3" font-family="Times,serif" font-size="14.00">Rumsfeld</text>
</g>
<!-- Myers -->
<g id="node7" class="node"><title>Myers</title>
<ellipse fill="none" stroke="black" cx="296.646" cy="-234" rx="34.394" ry="18"/>
<text text-anchor="middle" x="296.646" y="-230.3" font-family="Times,serif" font-size="14.00">Myers</text>
</g>
<!-- Rumsfeld&#45;&gt;Myers -->
<g id="edge6" class="edge"><title>Rumsfeld&#45;&gt;Myers</title>
<path fill="none" stroke="black" d="M296.646,-431.85C296.646,-394.83 296.646,-307.18 296.646,-262.39"/>
<polygon fill="black" stroke="black" points="300.147,-262.23 296.646,-252.23 293.147,-262.23 300.147,-262.23"/>
</g>
<!-- Wolfowitz -->
<g id="node9" class="node"><title>Wolfowitz</title>
<ellipse fill="none" stroke="black" cx="573.646" cy="-450" rx="50.8918" ry="18"/>
<text text-anchor="middle" x="573.646" y="-446.3" font-family="Times,serif" font-size="14.00">Wolfowitz</text>
</g>
<!-- Powell -->
<g id="node10" class="node"><title>Powell</title>
<ellipse fill="none" stroke="black" cx="841.646" cy="-450" rx="37.0935" ry="18"/>
<text text-anchor="middle" x="841.646" y="-446.3" font-family="Times,serif" font-size="14.00">Powell</text>
</g>
<!-- Armitage -->
<g id="node11" class="node"><title>Armitage</title>
<ellipse fill="none" stroke="black" cx="841.646" cy="-234" rx="46.2923" ry="18"/>
<text text-anchor="middle" x="841.646" y="-230.3" font-family="Times,serif" font-size="14.00">Armitage</text>
</g>
<!-- Powell&#45;&gt;Armitage -->
<g id="edge8" class="edge"><title>Powell&#45;&gt;Armitage</title>
<path fill="none" stroke="black" d="M841.646,-431.85C841.646,-394.83 841.646,-307.18 841.646,-262.39"/>
<polygon fill="black" stroke="black" points="845.147,-262.23 841.646,-252.23 838.147,-262.23 845.147,-262.23"/>
</g>
<!-- Ashcroft -->
<g id="node13" class="node"><title>Ashcroft</title>
<ellipse fill="none" stroke="black" cx="1102.65" cy="-450" rx="43.5923" ry="18"/>
<text text-anchor="middle" x="1102.65" y="-446.3" font-family="Times,serif" font-size="14.00">Ashcroft</text>
</g>
<!-- Rice -->
<g id="node14" class="node"><title>Rice</title>
<ellipse fill="none" stroke="black" cx="1353.65" cy="-450" rx="27.0966" ry="18"/>
<text text-anchor="middle" x="1353.65" y="-446.3" font-family="Times,serif" font-size="14.00">Rice</text>
</g>
<!-- Whitman -->
<g id="node15" class="node"><title>Whitman</title>
<ellipse fill="none" stroke="black" cx="1606.65" cy="-450" rx="45.4919" ry="18"/>
<text text-anchor="middle" x="1606.65" y="-446.3" font-family="Times,serif" font-size="14.00">Whitman</text>
</g>
<!-- Card -->
<g id="node16" class="node"><title>Card</title>
<ellipse fill="none" stroke="black" cx="1861.65" cy="-450" rx="29.4969" ry="18"/>
<text text-anchor="middle" x="1861.65" y="-446.3" font-family="Times,serif" font-size="14.00">Card</text>
</g>
<!-- Feith -->
<g id="node17" class="node"><title>Feith</title>
<ellipse fill="none" stroke="black" cx="2100.65" cy="-450" rx="29.795" ry="18"/>
<text text-anchor="middle" x="2100.65" y="-446.3" font-family="Times,serif" font-size="14.00">Feith</text>
</g>
</g>
</svg>
