<?xml version="1.0" encoding="UTF-8" standalone="no"?>
<!DOCTYPE svg PUBLIC "-//W3C//DTD SVG 1.1//EN"
 "http://www.w3.org/Graphics/SVG/1.1/DTD/svg11.dtd">
<!-- Generated by graphviz version 2.28.0 (20121021.1419)
 -->
<!-- Title: _anonymous_0 Pages: 1 -->
<svg width="2916pt" height="260pt"
 viewBox="0.00 0.00 2915.69 260.00" xmlns="http://www.w3.org/2000/svg" xmlns:xlink="http://www.w3.org/1999/xlink">
<g id="graph1" class="graph" transform="scale(1 1) rotate(0) translate(4 256)">
<title>_anonymous_0</title>
<polygon fill="white" stroke="white" points="-4,5 -4,-256 2912.69,-256 2912.69,5 -4,5"/>
<!-- Bush -->
<g id="node1" class="node"><title>Bush</title>
<ellipse fill="none" stroke="black" cx="33.797" cy="-18" rx="30.5947" ry="18"/>
<text text-anchor="middle" x="33.797" y="-14.3" font-family="Times,serif" font-size="14.00">Bush</text>
</g>
<!-- Rumsfeld -->
<g id="node2" class="node"><title>Rumsfeld</title>
<ellipse fill="none" stroke="black" cx="294.797" cy="-234" rx="46.5926" ry="18"/>
<text text-anchor="middle" x="294.797" y="-230.3" font-family="Times,serif" font-size="14.00">Rumsfeld</text>
</g>
<!-- Cheney -->
<g id="node3" class="node"><title>Cheney</title>
<ellipse fill="none" stroke="black" cx="560.797" cy="-234" rx="39.7935" ry="18"/>
<text text-anchor="middle" x="560.797" y="-230.3" font-family="Times,serif" font-size="14.00">Cheney</text>
</g>
<!-- Libby -->
<g id="node4" class="node"><title>Libby</title>
<ellipse fill="none" stroke="black" cx="33.797" cy="-234" rx="33.5952" ry="18"/>
<text text-anchor="middle" x="33.797" y="-230.3" font-family="Times,serif" font-size="14.00">Libby</text>
</g>
<!-- Libby&#45;&gt;Bush -->
<g id="edge2" class="edge"><title>Libby&#45;&gt;Bush</title>
<path fill="none" stroke="black" d="M33.797,-215.85C33.797,-178.83 33.797,-91.181 33.797,-46.386"/>
<polygon fill="black" stroke="black" points="37.2971,-46.232 33.797,-36.232 30.2971,-46.232 37.2971,-46.232"/>
</g>
<!-- Wolfowitz -->
<g id="node6" class="node"><title>Wolfowitz</title>
<ellipse fill="none" stroke="black" cx="830.797" cy="-234" rx="50.8918" ry="18"/>
<text text-anchor="middle" x="830.797" y="-230.3" font-family="Times,serif" font-size="14.00">Wolfowitz</text>
</g>
<!-- Myers -->
<g id="node7" class="node"><title>Myers</title>
<ellipse fill="none" stroke="black" cx="1095.8" cy="-234" rx="34.394" ry="18"/>
<text text-anchor="middle" x="1095.8" y="-230.3" font-family="Times,serif" font-size="14.00">Myers</text>
</g>
<!-- Powell -->
<g id="node8" class="node"><title>Powell</title>
<ellipse fill="none" stroke="black" cx="1346.8" cy="-234" rx="37.0935" ry="18"/>
<text text-anchor="middle" x="1346.8" y="-230.3" font-family="Times,serif" font-size="14.00">Powell</text>
</g>
<!-- Armitage -->
<g id="node9" class="node"><title>Armitage</title>
<ellipse fill="none" stroke="black" cx="1609.8" cy="-234" rx="46.2923" ry="18"/>
<text text-anchor="middle" x="1609.8" y="-230.3" font-family="Times,serif" font-size="14.00">Armitage</text>
</g>
<!-- Ashcroft -->
<g id="node10" class="node"><title>Ashcroft</title>
<ellipse fill="none" stroke="black" cx="1879.8" cy="-234" rx="43.5923" ry="18"/>
<text text-anchor="middle" x="1879.8" y="-230.3" font-family="Times,serif" font-size="14.00">Ashcroft</text>
</g>
<!-- Rice -->
<g id="node11" class="node"><title>Rice</title>
<ellipse fill="none" stroke="black" cx="2130.8" cy="-234" rx="27.0966" ry="18"/>
<text text-anchor="middle" x="2130.8" y="-230.3" font-family="Times,serif" font-size="14.00">Rice</text>
</g>
<!-- Whitman -->
<g id="node12" class="node"><title>Whitman</title>
<ellipse fill="none" stroke="black" cx="2383.8" cy="-234" rx="45.4919" ry="18"/>
<text text-anchor="middle" x="2383.8" y="-230.3" font-family="Times,serif" font-size="14.00">Whitman</text>
</g>
<!-- Card -->
<g id="node13" class="node"><title>Card</title>
<ellipse fill="none" stroke="black" cx="2638.8" cy="-234" rx="29.4969" ry="18"/>
<text text-anchor="middle" x="2638.8" y="-230.3" font-family="Times,serif" font-size="14.00">Card</text>
</g>
<!-- Feith -->
<g id="node14" class="node"><title>Feith</title>
<ellipse fill="none" stroke="black" cx="2877.8" cy="-234" rx="29.795" ry="18"/>
<text text-anchor="middle" x="2877.8" y="-230.3" font-family="Times,serif" font-size="14.00">Feith</text>
</g>
</g>
</svg>
