<?xml version="1.0" encoding="UTF-8" standalone="no"?>
<!DOCTYPE svg PUBLIC "-//W3C//DTD SVG 1.1//EN"
 "http://www.w3.org/Graphics/SVG/1.1/DTD/svg11.dtd">
<!-- Generated by graphviz version 2.28.0 (20121021.1419)
 -->
<!-- Title: _anonymous_0 Pages: 1 -->
<svg width="2770pt" height="476pt"
 viewBox="0.00 0.00 2769.54 476.00" xmlns="http://www.w3.org/2000/svg" xmlns:xlink="http://www.w3.org/1999/xlink">
<g id="graph1" class="graph" transform="scale(1 1) rotate(0) translate(4 472)">
<title>_anonymous_0</title>
<polygon fill="white" stroke="white" points="-4,5 -4,-472 2766.54,-472 2766.54,5 -4,5"/>
<!-- Bush -->
<g id="node1" class="node"><title>Bush</title>
<ellipse fill="none" stroke="black" cx="194.646" cy="-450" rx="30.5947" ry="18"/>
<text text-anchor="middle" x="194.646" y="-446.3" font-family="Times,serif" font-size="14.00">Bush</text>
</g>
<!-- Cheney -->
<g id="node2" class="node"><title>Cheney</title>
<ellipse fill="none" stroke="black" cx="39.6465" cy="-234" rx="39.7935" ry="18"/>
<text text-anchor="middle" x="39.6465" y="-230.3" font-family="Times,serif" font-size="14.00">Cheney</text>
</g>
<!-- Bush&#45;&gt;Cheney -->
<g id="edge2" class="edge"><title>Bush&#45;&gt;Cheney</title>
<path fill="none" stroke="black" d="M183.246,-433.26C156.506,-396.34 89.5745,-303.93 57.4275,-259.55"/>
<polygon fill="black" stroke="black" points="60.1829,-257.387 51.4835,-251.34 54.5129,-261.493 60.1829,-257.387"/>
</g>
<!-- Libby -->
<g id="node4" class="node"><title>Libby</title>
<ellipse fill="none" stroke="black" cx="194.646" cy="-18" rx="33.5952" ry="18"/>
<text text-anchor="middle" x="194.646" y="-14.3" font-family="Times,serif" font-size="14.00">Libby</text>
</g>
<!-- Cheney&#45;&gt;Libby -->
<g id="edge4" class="edge"><title>Cheney&#45;&gt;Libby</title>
<path fill="none" stroke="black" d="M51.5515,-216.56C78.7335,-179.04 145.456,-86.913 177.256,-43.015"/>
<polygon fill="black" stroke="black" points="180.096,-45.0612 183.126,-34.909 174.426,-40.9555 180.096,-45.0612"/>
</g>
<!-- Libby&#45;&gt;Bush -->
<g id="edge8" class="edge"><title>Libby&#45;&gt;Bush</title>
<path fill="none" stroke="black" d="M194.646,-36.171C194.646,-102.2 194.646,-340.08 194.646,-421.47"/>
<polygon fill="black" stroke="black" points="191.147,-421.88 194.646,-431.88 198.147,-421.88 191.147,-421.88"/>
</g>
<!-- Rumsfeld -->
<g id="node6" class="node"><title>Rumsfeld</title>
<ellipse fill="none" stroke="black" cx="655.646" cy="-450" rx="46.5926" ry="18"/>
<text text-anchor="middle" x="655.646" y="-446.3" font-family="Times,serif" font-size="14.00">Rumsfeld</text>
</g>
<!-- Myers -->
<g id="node7" class="node"><title>Myers</title>
<ellipse fill="none" stroke="black" cx="655.646" cy="-234" rx="34.394" ry="18"/>
<text text-anchor="middle" x="655.646" y="-230.3" font-family="Times,serif" font-size="14.00">Myers</text>
</g>
<!-- Rumsfeld&#45;&gt;Myers -->
<g id="edge6" class="edge"><title>Rumsfeld&#45;&gt;Myers</title>
<path fill="none" stroke="black" d="M655.646,-431.85C655.646,-394.83 655.646,-307.18 655.646,-262.39"/>
<polygon fill="black" stroke="black" points="659.147,-262.23 655.646,-252.23 652.147,-262.23 659.147,-262.23"/>
</g>
<!-- Wolfowitz -->
<g id="node10" class="node"><title>Wolfowitz</title>
<ellipse fill="none" stroke="black" cx="932.646" cy="-450" rx="50.8918" ry="18"/>
<text text-anchor="middle" x="932.646" y="-446.3" font-family="Times,serif" font-size="14.00">Wolfowitz</text>
</g>
<!-- Powell -->
<g id="node11" class="node"><title>Powell</title>
<ellipse fill="none" stroke="black" cx="1200.65" cy="-450" rx="37.0935" ry="18"/>
<text text-anchor="middle" x="1200.65" y="-446.3" font-family="Times,serif" font-size="14.00">Powell</text>
</g>
<!-- Armitage -->
<g id="node12" class="node"><title>Armitage</title>
<ellipse fill="none" stroke="black" cx="1463.65" cy="-450" rx="46.2923" ry="18"/>
<text text-anchor="middle" x="1463.65" y="-446.3" font-family="Times,serif" font-size="14.00">Armitage</text>
</g>
<!-- Ashcroft -->
<g id="node13" class="node"><title>Ashcroft</title>
<ellipse fill="none" stroke="black" cx="1733.65" cy="-450" rx="43.5923" ry="18"/>
<text text-anchor="middle" x="1733.65" y="-446.3" font-family="Times,serif" font-size="14.00">Ashcroft</text>
</g>
<!-- Rice -->
<g id="node14" class="node"><title>Rice</title>
<ellipse fill="none" stroke="black" cx="1984.65" cy="-450" rx="27.0966" ry="18"/>
<text text-anchor="middle" x="1984.65" y="-446.3" font-family="Times,serif" font-size="14.00">Rice</text>
</g>
<!-- Whitman -->
<g id="node15" class="node"><title>Whitman</title>
<ellipse fill="none" stroke="black" cx="2237.65" cy="-450" rx="45.4919" ry="18"/>
<text text-anchor="middle" x="2237.65" y="-446.3" font-family="Times,serif" font-size="14.00">Whitman</text>
</g>
<!-- Card -->
<g id="node16" class="node"><title>Card</title>
<ellipse fill="none" stroke="black" cx="2492.65" cy="-450" rx="29.4969" ry="18"/>
<text text-anchor="middle" x="2492.65" y="-446.3" font-family="Times,serif" font-size="14.00">Card</text>
</g>
<!-- Feith -->
<g id="node17" class="node"><title>Feith</title>
<ellipse fill="none" stroke="black" cx="2731.65" cy="-450" rx="29.795" ry="18"/>
<text text-anchor="middle" x="2731.65" y="-446.3" font-family="Times,serif" font-size="14.00">Feith</text>
</g>
</g>
</svg>
