<?xml version="1.0" encoding="UTF-8" standalone="no"?>
<!DOCTYPE svg PUBLIC "-//W3C//DTD SVG 1.1//EN"
 "http://www.w3.org/Graphics/SVG/1.1/DTD/svg11.dtd">
<!-- Generated by graphviz version 2.28.0 (20121021.1419)
 -->
<!-- Title: _anonymous_0 Pages: 1 -->
<svg width="2132pt" height="476pt"
 viewBox="0.00 0.00 2131.89 476.00" xmlns="http://www.w3.org/2000/svg" xmlns:xlink="http://www.w3.org/1999/xlink">
<g id="graph1" class="graph" transform="scale(1 1) rotate(0) translate(4 472)">
<title>_anonymous_0</title>
<polygon fill="white" stroke="white" points="-4,5 -4,-472 2128.89,-472 2128.89,5 -4,5"/>
<!-- Bush -->
<g id="node1" class="node"><title>Bush</title>
<ellipse fill="none" stroke="black" cx="446.646" cy="-450" rx="30.5947" ry="18"/>
<text text-anchor="middle" x="446.646" y="-446.3" font-family="Times,serif" font-size="14.00">Bush</text>
</g>
<!-- Cheney -->
<g id="node2" class="node"><title>Cheney</title>
<ellipse fill="none" stroke="black" cx="39.6465" cy="-234" rx="39.7935" ry="18"/>
<text text-anchor="middle" x="39.6465" y="-230.3" font-family="Times,serif" font-size="14.00">Cheney</text>
</g>
<!-- Bush&#45;&gt;Cheney -->
<g id="edge2" class="edge"><title>Bush&#45;&gt;Cheney</title>
<path fill="none" stroke="black" d="M424.766,-437.49C357.726,-402.25 154.846,-295.57 73.7145,-252.91"/>
<polygon fill="black" stroke="black" points="74.9222,-249.591 64.4415,-248.04 71.6674,-255.788 74.9222,-249.591"/>
</g>
<!-- Wolfowitz -->
<g id="node4" class="node"><title>Wolfowitz</title>
<ellipse fill="none" stroke="black" cx="309.646" cy="-234" rx="50.8918" ry="18"/>
<text text-anchor="middle" x="309.646" y="-230.3" font-family="Times,serif" font-size="14.00">Wolfowitz</text>
</g>
<!-- Bush&#45;&gt;Wolfowitz -->
<g id="edge4" class="edge"><title>Bush&#45;&gt;Wolfowitz</title>
<path fill="none" stroke="black" d="M436.346,-432.92C412.716,-395.99 354.416,-304.93 325.886,-260.38"/>
<polygon fill="black" stroke="black" points="328.773,-258.398 320.436,-251.86 322.877,-262.17 328.773,-258.398"/>
</g>
<!-- Ashcroft -->
<g id="node6" class="node"><title>Ashcroft</title>
<ellipse fill="none" stroke="black" cx="583.646" cy="-234" rx="43.5923" ry="18"/>
<text text-anchor="middle" x="583.646" y="-230.3" font-family="Times,serif" font-size="14.00">Ashcroft</text>
</g>
<!-- Bush&#45;&gt;Ashcroft -->
<g id="edge6" class="edge"><title>Bush&#45;&gt;Ashcroft</title>
<path fill="none" stroke="black" d="M456.946,-432.92C480.636,-395.9 539.166,-304.48 567.616,-260.05"/>
<polygon fill="black" stroke="black" points="570.6,-261.881 573.036,-251.57 564.702,-258.111 570.6,-261.881"/>
</g>
<!-- Rice -->
<g id="node8" class="node"><title>Rice</title>
<ellipse fill="none" stroke="black" cx="834.646" cy="-234" rx="27.0966" ry="18"/>
<text text-anchor="middle" x="834.646" y="-230.3" font-family="Times,serif" font-size="14.00">Rice</text>
</g>
<!-- Bush&#45;&gt;Rice -->
<g id="edge8" class="edge"><title>Bush&#45;&gt;Rice</title>
<path fill="none" stroke="black" d="M468.056,-437.19C533.416,-401.14 730.426,-292.48 805.326,-251.17"/>
<polygon fill="black" stroke="black" points="807.181,-254.145 814.246,-246.25 803.8,-248.015 807.181,-254.145"/>
</g>
<!-- Libby -->
<g id="node10" class="node"><title>Libby</title>
<ellipse fill="none" stroke="black" cx="39.6465" cy="-18" rx="33.5952" ry="18"/>
<text text-anchor="middle" x="39.6465" y="-14.3" font-family="Times,serif" font-size="14.00">Libby</text>
</g>
<!-- Cheney&#45;&gt;Libby -->
<g id="edge10" class="edge"><title>Cheney&#45;&gt;Libby</title>
<path fill="none" stroke="black" d="M39.6465,-215.85C39.6465,-178.83 39.6465,-91.181 39.6465,-46.386"/>
<polygon fill="black" stroke="black" points="43.1466,-46.232 39.6465,-36.232 36.1466,-46.232 43.1466,-46.232"/>
</g>
<!-- Rumsfeld -->
<g id="node12" class="node"><title>Rumsfeld</title>
<ellipse fill="none" stroke="black" cx="1194.65" cy="-450" rx="46.5926" ry="18"/>
<text text-anchor="middle" x="1194.65" y="-446.3" font-family="Times,serif" font-size="14.00">Rumsfeld</text>
</g>
<!-- Myers -->
<g id="node13" class="node"><title>Myers</title>
<ellipse fill="none" stroke="black" cx="1076.65" cy="-234" rx="34.394" ry="18"/>
<text text-anchor="middle" x="1076.65" y="-230.3" font-family="Times,serif" font-size="14.00">Myers</text>
</g>
<!-- Rumsfeld&#45;&gt;Myers -->
<g id="edge12" class="edge"><title>Rumsfeld&#45;&gt;Myers</title>
<path fill="none" stroke="black" d="M1185.35,-432.21C1164.75,-394.85 1115.05,-304.66 1090.65,-260.39"/>
<polygon fill="black" stroke="black" points="1093.61,-258.518 1085.75,-251.42 1087.47,-261.874 1093.61,-258.518"/>
</g>
<!-- Feith -->
<g id="node15" class="node"><title>Feith</title>
<ellipse fill="none" stroke="black" cx="1320.65" cy="-234" rx="29.795" ry="18"/>
<text text-anchor="middle" x="1320.65" y="-230.3" font-family="Times,serif" font-size="14.00">Feith</text>
</g>
<!-- Rumsfeld&#45;&gt;Feith -->
<g id="edge14" class="edge"><title>Rumsfeld&#45;&gt;Feith</title>
<path fill="none" stroke="black" d="M1204.55,-432.21C1226.65,-394.68 1280.15,-303.84 1306.05,-259.78"/>
<polygon fill="black" stroke="black" points="1309.08,-261.522 1311.15,-251.13 1303.05,-257.967 1309.08,-261.522"/>
</g>
<!-- Powell -->
<g id="node17" class="node"><title>Powell</title>
<ellipse fill="none" stroke="black" cx="1576.65" cy="-450" rx="37.0935" ry="18"/>
<text text-anchor="middle" x="1576.65" y="-446.3" font-family="Times,serif" font-size="14.00">Powell</text>
</g>
<!-- Armitage -->
<g id="node18" class="node"><title>Armitage</title>
<ellipse fill="none" stroke="black" cx="1576.65" cy="-234" rx="46.2923" ry="18"/>
<text text-anchor="middle" x="1576.65" y="-230.3" font-family="Times,serif" font-size="14.00">Armitage</text>
</g>
<!-- Powell&#45;&gt;Armitage -->
<g id="edge16" class="edge"><title>Powell&#45;&gt;Armitage</title>
<path fill="none" stroke="black" d="M1576.65,-431.85C1576.65,-394.83 1576.65,-307.18 1576.65,-262.39"/>
<polygon fill="black" stroke="black" points="1580.15,-262.23 1576.65,-252.23 1573.15,-262.23 1580.15,-262.23"/>
</g>
<!-- Whitman -->
<g id="node20" class="node"><title>Whitman</title>
<ellipse fill="none" stroke="black" cx="1839.65" cy="-450" rx="45.4919" ry="18"/>
<text text-anchor="middle" x="1839.65" y="-446.3" font-family="Times,serif" font-size="14.00">Whitman</text>
</g>
<!-- Card -->
<g id="node21" class="node"><title>Card</title>
<ellipse fill="none" stroke="black" cx="2094.65" cy="-450" rx="29.4969" ry="18"/>
<text text-anchor="middle" x="2094.65" y="-446.3" font-family="Times,serif" font-size="14.00">Card</text>
</g>
</g>
</svg>
