<?xml version="1.0" encoding="UTF-8" standalone="no"?>
<!DOCTYPE svg PUBLIC "-//W3C//DTD SVG 1.1//EN"
 "http://www.w3.org/Graphics/SVG/1.1/DTD/svg11.dtd">
<!-- Generated by graphviz version 2.28.0 (20121021.1419)
 -->
<!-- Title: _anonymous_0 Pages: 1 -->
<svg width="342pt" height="296pt"
 viewBox="0.00 0.00 342.00 296.00" xmlns="http://www.w3.org/2000/svg" xmlns:xlink="http://www.w3.org/1999/xlink">
<g id="graph1" class="graph" transform="scale(1 1) rotate(0) translate(4 292)">
<title>_anonymous_0</title>
<polygon fill="white" stroke="white" points="-4,5 -4,-292 339,-292 339,5 -4,5"/>
<!-- Bush -->
<g id="node1" class="node"><title>Bush</title>
<ellipse fill="none" stroke="black" cx="75.5471" cy="-72" rx="30.5947" ry="18"/>
<text text-anchor="middle" x="75.5471" y="-68.3" font-family="Times,serif" font-size="14.00">Bush</text>
</g>
<!-- Cheney -->
<g id="node2" class="node"><title>Cheney</title>
<ellipse fill="none" stroke="black" cx="95.8111" cy="-144.04" rx="39.7935" ry="18"/>
<text text-anchor="middle" x="95.8111" y="-140.34" font-family="Times,serif" font-size="14.00">Cheney</text>
</g>
<!-- Bush&#45;&gt;Cheney -->
<g id="edge2" class="edge"><title>Bush&#45;&gt;Cheney</title>
<path fill="none" stroke="black" d="M80.5561,-89.809C82.7801,-97.715 85.4511,-107.21 87.9321,-116.03"/>
<polygon fill="black" stroke="black" points="84.6425,-117.261 90.7191,-125.94 91.3811,-115.366 84.6425,-117.261"/>
</g>
<!-- Libby -->
<g id="node4" class="node"><title>Libby</title>
<ellipse fill="none" stroke="black" cx="148.09" cy="-90.36" rx="34" ry="18"/>
<text text-anchor="middle" x="148.09" y="-86.66" font-family="Times,serif" font-size="14.00">Libby</text>
</g>
<!-- Cheney&#45;&gt;Libby -->
<g id="edge4" class="edge"><title>Cheney&#45;&gt;Libby</title>
<path fill="none" stroke="black" d="M112.07,-127.35C116.22,-123.09 120.75,-118.43 125.17,-113.9"/>
<polygon fill="black" stroke="black" points="127.918,-116.095 132.39,-106.49 122.905,-111.21 127.918,-116.095"/>
</g>
<!-- Libby&#45;&gt;Bush -->
<g id="edge8" class="edge"><title>Libby&#45;&gt;Bush</title>
<path fill="none" stroke="black" d="M117.33,-82.573C116.07,-82.255 114.8,-81.933 113.53,-81.612"/>
<polygon fill="black" stroke="black" points="114.383,-78.2176 103.83,-79.157 112.666,-85.0037 114.383,-78.2176"/>
</g>
<!-- Rumsfeld -->
<g id="node6" class="node"><title>Rumsfeld</title>
<ellipse fill="none" stroke="black" cx="211.54" cy="-211.87" rx="47" ry="18"/>
<text text-anchor="middle" x="211.54" y="-208.17" font-family="Times,serif" font-size="14.00">Rumsfeld</text>
</g>
<!-- Myers -->
<g id="node7" class="node"><title>Myers</title>
<ellipse fill="none" stroke="black" cx="187.5" cy="-144" rx="34.5" ry="18"/>
<text text-anchor="middle" x="187.5" y="-140.3" font-family="Times,serif" font-size="14.00">Myers</text>
</g>
<!-- Rumsfeld&#45;&gt;Myers -->
<g id="edge6" class="edge"><title>Rumsfeld&#45;&gt;Myers</title>
<path fill="none" stroke="black" d="M205.1,-193.68C202.66,-186.8 199.83,-178.81 197.16,-171.28"/>
<polygon fill="black" stroke="black" points="200.429,-170.027 193.79,-161.77 193.831,-172.365 200.429,-170.027"/>
</g>
<!-- Wolfowitz -->
<g id="node10" class="node"><title>Wolfowitz</title>
<ellipse fill="none" stroke="black" cx="86.6961" cy="-216" rx="50.8918" ry="18"/>
<text text-anchor="middle" x="86.6961" y="-212.3" font-family="Times,serif" font-size="14.00">Wolfowitz</text>
</g>
<!-- Powell -->
<g id="node11" class="node"><title>Powell</title>
<ellipse fill="none" stroke="black" cx="145.05" cy="-18" rx="37.0935" ry="18"/>
<text text-anchor="middle" x="145.05" y="-14.3" font-family="Times,serif" font-size="14.00">Powell</text>
</g>
<!-- Armitage -->
<g id="node12" class="node"><title>Armitage</title>
<ellipse fill="none" stroke="black" cx="253.15" cy="-45" rx="46.2923" ry="18"/>
<text text-anchor="middle" x="253.15" y="-41.3" font-family="Times,serif" font-size="14.00">Armitage</text>
</g>
<!-- Ashcroft -->
<g id="node13" class="node"><title>Ashcroft</title>
<ellipse fill="none" stroke="black" cx="43.5461" cy="-18" rx="43.5923" ry="18"/>
<text text-anchor="middle" x="43.5461" y="-14.3" font-family="Times,serif" font-size="14.00">Ashcroft</text>
</g>
<!-- Rice -->
<g id="node14" class="node"><title>Rice</title>
<ellipse fill="none" stroke="black" cx="198.5" cy="-270" rx="27.5" ry="18"/>
<text text-anchor="middle" x="198.5" y="-266.3" font-family="Times,serif" font-size="14.00">Rice</text>
</g>
<!-- Whitman -->
<g id="node15" class="node"><title>Whitman</title>
<ellipse fill="none" stroke="black" cx="288.5" cy="-99" rx="45.5" ry="18"/>
<text text-anchor="middle" x="288.5" y="-95.3" font-family="Times,serif" font-size="14.00">Whitman</text>
</g>
<!-- Card -->
<g id="node16" class="node"><title>Card</title>
<ellipse fill="none" stroke="black" cx="281.25" cy="-270" rx="29.4969" ry="18"/>
<text text-anchor="middle" x="281.25" y="-266.3" font-family="Times,serif" font-size="14.00">Card</text>
</g>
<!-- Feith -->
<g id="node17" class="node"><title>Feith</title>
<ellipse fill="none" stroke="black" cx="273" cy="-153" rx="30" ry="18"/>
<text text-anchor="middle" x="273" y="-149.3" font-family="Times,serif" font-size="14.00">Feith</text>
</g>
</g>
</svg>
