<?xml version="1.0" encoding="UTF-8" standalone="no"?>
<!DOCTYPE svg PUBLIC "-//W3C//DTD SVG 1.1//EN"
 "http://www.w3.org/Graphics/SVG/1.1/DTD/svg11.dtd">
<!-- Generated by graphviz version 2.28.0 (20121021.1419)
 -->
<!-- Title: _anonymous_0 Pages: 1 -->
<svg width="330pt" height="316pt"
 viewBox="0.00 0.00 330.50 316.00" xmlns="http://www.w3.org/2000/svg" xmlns:xlink="http://www.w3.org/1999/xlink">
<g id="graph1" class="graph" transform="scale(1 1) rotate(0) translate(4 312)">
<title>_anonymous_0</title>
<polygon fill="white" stroke="white" points="-4,5 -4,-312 327.498,-312 327.498,5 -4,5"/>
<!-- Bush -->
<g id="node1" class="node"><title>Bush</title>
<ellipse fill="none" stroke="black" cx="78.5475" cy="-127.38" rx="30.5947" ry="18"/>
<text text-anchor="middle" x="78.5475" y="-123.68" font-family="Times,serif" font-size="14.00">Bush</text>
</g>
<!-- Rumsfeld -->
<g id="node2" class="node"><title>Rumsfeld</title>
<ellipse fill="none" stroke="black" cx="255" cy="-234" rx="47" ry="18"/>
<text text-anchor="middle" x="255" y="-230.3" font-family="Times,serif" font-size="14.00">Rumsfeld</text>
</g>
<!-- Cheney -->
<g id="node3" class="node"><title>Cheney</title>
<ellipse fill="none" stroke="black" cx="39.6465" cy="-282" rx="39.7935" ry="18"/>
<text text-anchor="middle" x="39.6465" y="-278.3" font-family="Times,serif" font-size="14.00">Cheney</text>
</g>
<!-- Libby -->
<g id="node4" class="node"><title>Libby</title>
<ellipse fill="none" stroke="black" cx="151.09" cy="-122" rx="34" ry="18"/>
<text text-anchor="middle" x="151.09" y="-118.3" font-family="Times,serif" font-size="14.00">Libby</text>
</g>
<!-- Libby&#45;&gt;Bush -->
<g id="edge2" class="edge"><title>Libby&#45;&gt;Bush</title>
<path fill="none" stroke="black" d="M117.37,-124.5C117.28,-124.51 117.19,-124.51 117.11,-124.52"/>
<polygon fill="black" stroke="black" points="118.652,-120.895 108.94,-125.13 119.173,-127.876 118.652,-120.895"/>
</g>
<!-- Wolfowitz -->
<g id="node6" class="node"><title>Wolfowitz</title>
<ellipse fill="none" stroke="black" cx="202.7" cy="-178" rx="50.8918" ry="18"/>
<text text-anchor="middle" x="202.7" y="-174.3" font-family="Times,serif" font-size="14.00">Wolfowitz</text>
</g>
<!-- Myers -->
<g id="node7" class="node"><title>Myers</title>
<ellipse fill="none" stroke="black" cx="178.5" cy="-18" rx="34.5" ry="18"/>
<text text-anchor="middle" x="178.5" y="-14.3" font-family="Times,serif" font-size="14.00">Myers</text>
</g>
<!-- Powell -->
<g id="node8" class="node"><title>Powell</title>
<ellipse fill="none" stroke="black" cx="37.0475" cy="-226" rx="37.0935" ry="18"/>
<text text-anchor="middle" x="37.0475" y="-222.3" font-family="Times,serif" font-size="14.00">Powell</text>
</g>
<!-- Armitage -->
<g id="node9" class="node"><title>Armitage</title>
<ellipse fill="none" stroke="black" cx="254.15" cy="-74" rx="46.2923" ry="18"/>
<text text-anchor="middle" x="254.15" y="-70.3" font-family="Times,serif" font-size="14.00">Armitage</text>
</g>
<!-- Ashcroft -->
<g id="node10" class="node"><title>Ashcroft</title>
<ellipse fill="none" stroke="black" cx="83.5465" cy="-66" rx="43.5923" ry="18"/>
<text text-anchor="middle" x="83.5465" y="-62.3" font-family="Times,serif" font-size="14.00">Ashcroft</text>
</g>
<!-- Rice -->
<g id="node11" class="node"><title>Rice</title>
<ellipse fill="none" stroke="black" cx="219.5" cy="-290" rx="27.5" ry="18"/>
<text text-anchor="middle" x="219.5" y="-286.3" font-family="Times,serif" font-size="14.00">Rice</text>
</g>
<!-- Whitman -->
<g id="node12" class="node"><title>Whitman</title>
<ellipse fill="none" stroke="black" cx="141.5" cy="-234" rx="45.5" ry="18"/>
<text text-anchor="middle" x="141.5" y="-230.3" font-family="Times,serif" font-size="14.00">Whitman</text>
</g>
<!-- Card -->
<g id="node13" class="node"><title>Card</title>
<ellipse fill="none" stroke="black" cx="293.25" cy="-290" rx="29.4969" ry="18"/>
<text text-anchor="middle" x="293.25" y="-286.3" font-family="Times,serif" font-size="14.00">Card</text>
</g>
<!-- Feith -->
<g id="node14" class="node"><title>Feith</title>
<ellipse fill="none" stroke="black" cx="262" cy="-18" rx="30" ry="18"/>
<text text-anchor="middle" x="262" y="-14.3" font-family="Times,serif" font-size="14.00">Feith</text>
</g>
</g>
</svg>
