<?xml version="1.0" encoding="UTF-8" standalone="no"?>
<!DOCTYPE svg PUBLIC "-//W3C//DTD SVG 1.1//EN"
 "http://www.w3.org/Graphics/SVG/1.1/DTD/svg11.dtd">
<!-- Generated by graphviz version 2.28.0 (20121021.1419)
 -->
<!-- Title: _anonymous_0 Pages: 1 -->
<svg width="352pt" height="292pt"
 viewBox="0.00 0.00 352.39 291.87" xmlns="http://www.w3.org/2000/svg" xmlns:xlink="http://www.w3.org/1999/xlink">
<g id="graph1" class="graph" transform="scale(1 1) rotate(0) translate(4 287.87)">
<title>_anonymous_0</title>
<polygon fill="white" stroke="white" points="-4,5 -4,-287.87 349.386,-287.87 349.386,5 -4,5"/>
<!-- Bush -->
<g id="node1" class="node"><title>Bush</title>
<ellipse fill="none" stroke="black" cx="30.5474" cy="-98" rx="30.5947" ry="18"/>
<text text-anchor="middle" x="30.5474" y="-94.3" font-family="Times,serif" font-size="14.00">Bush</text>
</g>
<!-- Cheney -->
<g id="node2" class="node"><title>Cheney</title>
<ellipse fill="none" stroke="black" cx="108.74" cy="-131.09" rx="39.7935" ry="18"/>
<text text-anchor="middle" x="108.74" y="-127.39" font-family="Times,serif" font-size="14.00">Cheney</text>
</g>
<!-- Bush&#45;&gt;Cheney -->
<g id="edge2" class="edge"><title>Bush&#45;&gt;Cheney</title>
<path fill="none" stroke="black" d="M55.7194,-108.65C60.3444,-110.61 65.2684,-112.69 70.1814,-114.77"/>
<polygon fill="black" stroke="black" points="68.9602,-118.054 79.5334,-118.73 71.6897,-111.608 68.9602,-118.054"/>
</g>
<!-- Libby -->
<g id="node4" class="node"><title>Libby</title>
<ellipse fill="none" stroke="black" cx="193.38" cy="-138.44" rx="34" ry="18"/>
<text text-anchor="middle" x="193.38" y="-134.74" font-family="Times,serif" font-size="14.00">Libby</text>
</g>
<!-- Cheney&#45;&gt;Libby -->
<g id="edge4" class="edge"><title>Cheney&#45;&gt;Libby</title>
<path fill="none" stroke="black" d="M148.09,-134.51C148.57,-134.55 149.06,-134.59 149.55,-134.63"/>
<polygon fill="black" stroke="black" points="149.443,-138.134 159.71,-135.52 150.054,-131.161 149.443,-138.134"/>
</g>
<!-- Rumsfeld -->
<g id="node6" class="node"><title>Rumsfeld</title>
<ellipse fill="none" stroke="black" cx="138.54" cy="-265.87" rx="47" ry="18"/>
<text text-anchor="middle" x="138.54" y="-262.17" font-family="Times,serif" font-size="14.00">Rumsfeld</text>
</g>
<!-- Myers -->
<g id="node7" class="node"><title>Myers</title>
<ellipse fill="none" stroke="black" cx="114.5" cy="-198" rx="34.5" ry="18"/>
<text text-anchor="middle" x="114.5" y="-194.3" font-family="Times,serif" font-size="14.00">Myers</text>
</g>
<!-- Rumsfeld&#45;&gt;Myers -->
<g id="edge6" class="edge"><title>Rumsfeld&#45;&gt;Myers</title>
<path fill="none" stroke="black" d="M132.1,-247.68C129.66,-240.8 126.83,-232.81 124.16,-225.28"/>
<polygon fill="black" stroke="black" points="127.43,-224.027 120.79,-215.77 120.832,-226.365 127.43,-224.027"/>
</g>
<!-- Wolfowitz -->
<g id="node9" class="node"><title>Wolfowitz</title>
<ellipse fill="none" stroke="black" cx="220.7" cy="-78" rx="50.8918" ry="18"/>
<text text-anchor="middle" x="220.7" y="-74.3" font-family="Times,serif" font-size="14.00">Wolfowitz</text>
</g>
<!-- Powell -->
<g id="node10" class="node"><title>Powell</title>
<ellipse fill="none" stroke="black" cx="207.05" cy="-198" rx="37.0935" ry="18"/>
<text text-anchor="middle" x="207.05" y="-194.3" font-family="Times,serif" font-size="14.00">Powell</text>
</g>
<!-- Armitage -->
<g id="node11" class="node"><title>Armitage</title>
<ellipse fill="none" stroke="black" cx="298.24" cy="-220.78" rx="46.2923" ry="18"/>
<text text-anchor="middle" x="298.24" y="-217.08" font-family="Times,serif" font-size="14.00">Armitage</text>
</g>
<!-- Powell&#45;&gt;Armitage -->
<g id="edge8" class="edge"><title>Powell&#45;&gt;Armitage</title>
<path fill="none" stroke="black" d="M240.23,-206.29C243.24,-207.04 246.32,-207.81 249.43,-208.59"/>
<polygon fill="black" stroke="black" points="248.801,-212.04 259.35,-211.06 250.492,-205.247 248.801,-212.04"/>
</g>
<!-- Ashcroft -->
<g id="node13" class="node"><title>Ashcroft</title>
<ellipse fill="none" stroke="black" cx="53.5464" cy="-38" rx="43.5923" ry="18"/>
<text text-anchor="middle" x="53.5464" y="-34.3" font-family="Times,serif" font-size="14.00">Ashcroft</text>
</g>
<!-- Rice -->
<g id="node14" class="node"><title>Rice</title>
<ellipse fill="none" stroke="black" cx="257.5" cy="-18" rx="27.5" ry="18"/>
<text text-anchor="middle" x="257.5" y="-14.3" font-family="Times,serif" font-size="14.00">Rice</text>
</g>
<!-- Whitman -->
<g id="node15" class="node"><title>Whitman</title>
<ellipse fill="none" stroke="black" cx="165.5" cy="-18" rx="45.5" ry="18"/>
<text text-anchor="middle" x="165.5" y="-14.3" font-family="Times,serif" font-size="14.00">Whitman</text>
</g>
<!-- Card -->
<g id="node16" class="node"><title>Card</title>
<ellipse fill="none" stroke="black" cx="29.2474" cy="-198" rx="29.4969" ry="18"/>
<text text-anchor="middle" x="29.2474" y="-194.3" font-family="Times,serif" font-size="14.00">Card</text>
</g>
<!-- Feith -->
<g id="node17" class="node"><title>Feith</title>
<ellipse fill="none" stroke="black" cx="40.0004" cy="-258" rx="30" ry="18"/>
<text text-anchor="middle" x="40.0004" y="-254.3" font-family="Times,serif" font-size="14.00">Feith</text>
</g>
</g>
</svg>
