<?xml version="1.0" encoding="UTF-8" standalone="no"?>
<!DOCTYPE svg PUBLIC "-//W3C//DTD SVG 1.1//EN"
 "http://www.w3.org/Graphics/SVG/1.1/DTD/svg11.dtd">
<!-- Generated by graphviz version 2.28.0 (20121021.1419)
 -->
<!-- Title: _anonymous_0 Pages: 1 -->
<svg width="452pt" height="355pt"
 viewBox="0.00 0.00 452.39 354.78" xmlns="http://www.w3.org/2000/svg" xmlns:xlink="http://www.w3.org/1999/xlink">
<g id="graph1" class="graph" transform="scale(1 1) rotate(0) translate(4 350.78)">
<title>_anonymous_0</title>
<polygon fill="white" stroke="white" points="-4,5 -4,-350.78 449.386,-350.78 449.386,5 -4,5"/>
<!-- Bush -->
<g id="node1" class="node"><title>Bush</title>
<ellipse fill="none" stroke="black" cx="129.8" cy="-104.72" rx="30.5947" ry="18"/>
<text text-anchor="middle" x="129.8" y="-101.02" font-family="Times,serif" font-size="14.00">Bush</text>
</g>
<!-- Cheney -->
<g id="node2" class="node"><title>Cheney</title>
<ellipse fill="none" stroke="black" cx="119.44" cy="-191.58" rx="39.7935" ry="18"/>
<text text-anchor="middle" x="119.44" y="-187.88" font-family="Times,serif" font-size="14.00">Cheney</text>
</g>
<!-- Bush&#45;&gt;Cheney -->
<g id="edge2" class="edge"><title>Bush&#45;&gt;Cheney</title>
<path fill="none" stroke="black" d="M127.66,-122.71C126.25,-134.48 124.39,-150.08 122.8,-163.47"/>
<polygon fill="black" stroke="black" points="119.301,-163.255 121.59,-173.6 126.252,-164.086 119.301,-163.255"/>
</g>
<!-- Wolfowitz -->
<g id="node4" class="node"><title>Wolfowitz</title>
<ellipse fill="none" stroke="black" cx="219.04" cy="-102.7" rx="50.8918" ry="18"/>
<text text-anchor="middle" x="219.04" y="-99" font-family="Times,serif" font-size="14.00">Wolfowitz</text>
</g>
<!-- Bush&#45;&gt;Wolfowitz -->
<g id="edge4" class="edge"><title>Bush&#45;&gt;Wolfowitz</title>
<path fill="none" stroke="black" d="M160.26,-104.03C160.43,-104.02 160.59,-104.02 160.76,-104.02"/>
<polygon fill="black" stroke="black" points="158.407,-107.577 168.32,-103.84 158.24,-100.579 158.407,-107.577"/>
</g>
<!-- Ashcroft -->
<g id="node6" class="node"><title>Ashcroft</title>
<ellipse fill="none" stroke="black" cx="43.5464" cy="-81.699" rx="43.5923" ry="18"/>
<text text-anchor="middle" x="43.5464" y="-77.999" font-family="Times,serif" font-size="14.00">Ashcroft</text>
</g>
<!-- Bush&#45;&gt;Ashcroft -->
<g id="edge6" class="edge"><title>Bush&#45;&gt;Ashcroft</title>
<path fill="none" stroke="black" d="M102.04,-97.306C98.2654,-96.3 94.3144,-95.246 90.3214,-94.18"/>
<polygon fill="black" stroke="black" points="90.9527,-90.7261 80.3884,-91.53 89.1482,-97.4895 90.9527,-90.7261"/>
</g>
<!-- Rice -->
<g id="node8" class="node"><title>Rice</title>
<ellipse fill="none" stroke="black" cx="140.2" cy="-18" rx="27.0966" ry="18"/>
<text text-anchor="middle" x="140.2" y="-14.3" font-family="Times,serif" font-size="14.00">Rice</text>
</g>
<!-- Bush&#45;&gt;Rice -->
<g id="edge8" class="edge"><title>Bush&#45;&gt;Rice</title>
<path fill="none" stroke="black" d="M131.96,-86.748C133.35,-75.083 135.21,-59.632 136.8,-46.333"/>
<polygon fill="black" stroke="black" points="140.295,-46.5886 138.01,-36.243 133.345,-45.7551 140.295,-46.5886"/>
</g>
<!-- Libby -->
<g id="node10" class="node"><title>Libby</title>
<ellipse fill="none" stroke="black" cx="110.98" cy="-273.13" rx="34" ry="18"/>
<text text-anchor="middle" x="110.98" y="-269.43" font-family="Times,serif" font-size="14.00">Libby</text>
</g>
<!-- Cheney&#45;&gt;Libby -->
<g id="edge10" class="edge"><title>Cheney&#45;&gt;Libby</title>
<path fill="none" stroke="black" d="M117.57,-209.68C116.49,-220.03 115.12,-233.23 113.91,-244.91"/>
<polygon fill="black" stroke="black" points="110.405,-244.784 112.86,-255.09 117.368,-245.502 110.405,-244.784"/>
</g>
<!-- Rumsfeld -->
<g id="node12" class="node"><title>Rumsfeld</title>
<ellipse fill="none" stroke="black" cx="265.31" cy="-241.08" rx="47" ry="18"/>
<text text-anchor="middle" x="265.31" y="-237.38" font-family="Times,serif" font-size="14.00">Rumsfeld</text>
</g>
<!-- Myers -->
<g id="node13" class="node"><title>Myers</title>
<ellipse fill="none" stroke="black" cx="303.97" cy="-180" rx="34.5" ry="18"/>
<text text-anchor="middle" x="303.97" y="-176.3" font-family="Times,serif" font-size="14.00">Myers</text>
</g>
<!-- Rumsfeld&#45;&gt;Myers -->
<g id="edge12" class="edge"><title>Rumsfeld&#45;&gt;Myers</title>
<path fill="none" stroke="black" d="M276.49,-223.41C279.88,-218.05 283.69,-212.03 287.36,-206.23"/>
<polygon fill="black" stroke="black" points="290.552,-207.732 292.94,-197.41 284.636,-203.99 290.552,-207.732"/>
</g>
<!-- Feith -->
<g id="node15" class="node"><title>Feith</title>
<ellipse fill="none" stroke="black" cx="210" cy="-287.58" rx="30" ry="18"/>
<text text-anchor="middle" x="210" y="-283.88" font-family="Times,serif" font-size="14.00">Feith</text>
</g>
<!-- Rumsfeld&#45;&gt;Feith -->
<g id="edge14" class="edge"><title>Rumsfeld&#45;&gt;Feith</title>
<path fill="none" stroke="black" d="M245.65,-257.6C242.37,-260.36 238.92,-263.26 235.52,-266.13"/>
<polygon fill="black" stroke="black" points="233.154,-263.547 227.75,-272.66 237.658,-268.906 233.154,-263.547"/>
</g>
<!-- Powell -->
<g id="node17" class="node"><title>Powell</title>
<ellipse fill="none" stroke="black" cx="307.05" cy="-306" rx="37.0935" ry="18"/>
<text text-anchor="middle" x="307.05" y="-302.3" font-family="Times,serif" font-size="14.00">Powell</text>
</g>
<!-- Armitage -->
<g id="node18" class="node"><title>Armitage</title>
<ellipse fill="none" stroke="black" cx="398.24" cy="-328.78" rx="46.2923" ry="18"/>
<text text-anchor="middle" x="398.24" y="-325.08" font-family="Times,serif" font-size="14.00">Armitage</text>
</g>
<!-- Powell&#45;&gt;Armitage -->
<g id="edge16" class="edge"><title>Powell&#45;&gt;Armitage</title>
<path fill="none" stroke="black" d="M340.23,-314.29C343.24,-315.04 346.32,-315.81 349.43,-316.59"/>
<polygon fill="black" stroke="black" points="348.8,-320.04 359.35,-319.07 350.498,-313.249 348.8,-320.04"/>
</g>
<!-- Whitman -->
<g id="node20" class="node"><title>Whitman</title>
<ellipse fill="none" stroke="black" cx="243.5" cy="-36" rx="45.5" ry="18"/>
<text text-anchor="middle" x="243.5" y="-32.3" font-family="Times,serif" font-size="14.00">Whitman</text>
</g>
<!-- Card -->
<g id="node21" class="node"><title>Card</title>
<ellipse fill="none" stroke="black" cx="29.2474" cy="-198" rx="29.4969" ry="18"/>
<text text-anchor="middle" x="29.2474" y="-194.3" font-family="Times,serif" font-size="14.00">Card</text>
</g>
</g>
</svg>
