<?xml version="1.0" encoding="UTF-8" standalone="no"?>
<!DOCTYPE svg PUBLIC "-//W3C//DTD SVG 1.1//EN"
 "http://www.w3.org/Graphics/SVG/1.1/DTD/svg11.dtd">
<!-- Generated by graphviz version 2.28.0 (20121021.1419)
 -->
<!-- Title: _anonymous_0 Pages: 1 -->
<svg width="529pt" height="428pt"
 viewBox="0.00 0.00 528.79 427.52" xmlns="http://www.w3.org/2000/svg" xmlns:xlink="http://www.w3.org/1999/xlink">
<g id="graph1" class="graph" transform="scale(1 1) rotate(0) translate(4 423.52)">
<title>_anonymous_0</title>
<polygon fill="white" stroke="white" points="-4,5 -4,-423.52 525.79,-423.52 525.79,5 -4,5"/>
<!-- Bush -->
<g id="node1" class="node"><title>Bush</title>
<ellipse fill="none" stroke="black" cx="238.28" cy="-148.79" rx="30.5947" ry="18"/>
<text text-anchor="middle" x="238.28" y="-145.09" font-family="Times,serif" font-size="14.00">Bush</text>
</g>
<!-- Cheney -->
<g id="node2" class="node"><title>Cheney</title>
<ellipse fill="none" stroke="black" cx="143.9" cy="-244.93" rx="39.7935" ry="18"/>
<text text-anchor="middle" x="143.9" y="-241.23" font-family="Times,serif" font-size="14.00">Cheney</text>
</g>
<!-- Bush&#45;&gt;Cheney -->
<g id="edge2" class="edge"><title>Bush&#45;&gt;Cheney</title>
<path fill="none" stroke="black" d="M222.69,-164.67C207.57,-180.07 184.45,-203.63 167.15,-221.24"/>
<polygon fill="black" stroke="black" points="164.642,-218.799 160.14,-228.39 169.64,-223.7 164.642,-218.799"/>
</g>
<!-- Wolfowitz -->
<g id="node4" class="node"><title>Wolfowitz</title>
<ellipse fill="none" stroke="black" cx="324.4" cy="-78.876" rx="50.8918" ry="18"/>
<text text-anchor="middle" x="324.4" y="-75.176" font-family="Times,serif" font-size="14.00">Wolfowitz</text>
</g>
<!-- Bush&#45;&gt;Wolfowitz -->
<g id="edge4" class="edge"><title>Bush&#45;&gt;Wolfowitz</title>
<path fill="none" stroke="black" d="M256.54,-133.97C268.07,-124.61 283.2,-112.32 296.25,-101.73"/>
<polygon fill="black" stroke="black" points="298.493,-104.417 304.05,-95.396 294.081,-98.9829 298.493,-104.417"/>
</g>
<!-- Ashcroft -->
<g id="node6" class="node"><title>Ashcroft</title>
<ellipse fill="none" stroke="black" cx="126.72" cy="-75.126" rx="43.5923" ry="18"/>
<text text-anchor="middle" x="126.72" y="-71.426" font-family="Times,serif" font-size="14.00">Ashcroft</text>
</g>
<!-- Bush&#45;&gt;Ashcroft -->
<g id="edge6" class="edge"><title>Bush&#45;&gt;Ashcroft</title>
<path fill="none" stroke="black" d="M217.82,-135.28C201.23,-124.33 177.58,-108.71 158.53,-96.13"/>
<polygon fill="black" stroke="black" points="160.414,-93.1798 150.14,-90.592 156.558,-99.0219 160.414,-93.1798"/>
</g>
<!-- Rice -->
<g id="node8" class="node"><title>Rice</title>
<ellipse fill="none" stroke="black" cx="189.54" cy="-23.919" rx="27.0966" ry="18"/>
<text text-anchor="middle" x="189.54" y="-20.219" font-family="Times,serif" font-size="14.00">Rice</text>
</g>
<!-- Bush&#45;&gt;Rice -->
<g id="edge8" class="edge"><title>Bush&#45;&gt;Rice</title>
<path fill="none" stroke="black" d="M231.4,-131.17C223.23,-110.25 209.53,-75.151 200.04,-50.83"/>
<polygon fill="black" stroke="black" points="203.277,-49.4982 196.38,-41.456 196.757,-52.0441 203.277,-49.4982"/>
</g>
<!-- Rumsfeld -->
<g id="node10" class="node"><title>Rumsfeld</title>
<ellipse fill="none" stroke="black" cx="377.54" cy="-171.01" rx="47" ry="18"/>
<text text-anchor="middle" x="377.54" y="-167.31" font-family="Times,serif" font-size="14.00">Rumsfeld</text>
</g>
<!-- Bush&#45;&gt;Rumsfeld -->
<g id="edge10" class="edge"><title>Bush&#45;&gt;Rumsfeld</title>
<path fill="none" stroke="black" d="M267.81,-153.51C284.12,-156.11 304.88,-159.42 323.95,-162.46"/>
<polygon fill="black" stroke="black" points="323.603,-165.949 334.03,-164.07 324.707,-159.036 323.603,-165.949"/>
</g>
<!-- Powell -->
<g id="node12" class="node"><title>Powell</title>
<ellipse fill="none" stroke="black" cx="266.08" cy="-276.82" rx="37.0935" ry="18"/>
<text text-anchor="middle" x="266.08" y="-273.12" font-family="Times,serif" font-size="14.00">Powell</text>
</g>
<!-- Bush&#45;&gt;Powell -->
<g id="edge12" class="edge"><title>Bush&#45;&gt;Powell</title>
<path fill="none" stroke="black" d="M242.2,-166.87C246.84,-188.21 254.61,-223.97 260.02,-248.89"/>
<polygon fill="black" stroke="black" points="256.638,-249.81 262.18,-258.84 263.479,-248.325 256.638,-249.81"/>
</g>
<!-- Whitman -->
<g id="node14" class="node"><title>Whitman</title>
<ellipse fill="none" stroke="black" cx="270.33" cy="-18" rx="45.4919" ry="18"/>
<text text-anchor="middle" x="270.33" y="-14.3" font-family="Times,serif" font-size="14.00">Whitman</text>
</g>
<!-- Bush&#45;&gt;Whitman -->
<g id="edge14" class="edge"><title>Bush&#45;&gt;Whitman</title>
<path fill="none" stroke="black" d="M242.67,-130.88C248.03,-108.99 257.17,-71.699 263.47,-46.005"/>
<polygon fill="black" stroke="black" points="266.913,-46.6614 265.89,-36.116 260.113,-44.9974 266.913,-46.6614"/>
</g>
<!-- Card -->
<g id="node16" class="node"><title>Card</title>
<ellipse fill="none" stroke="black" cx="122.03" cy="-155.53" rx="29.4969" ry="18"/>
<text text-anchor="middle" x="122.03" y="-151.83" font-family="Times,serif" font-size="14.00">Card</text>
</g>
<!-- Bush&#45;&gt;Card -->
<g id="edge16" class="edge"><title>Bush&#45;&gt;Card</title>
<path fill="none" stroke="black" d="M208.04,-150.55C193.83,-151.37 176.7,-152.36 161.48,-153.24"/>
<polygon fill="black" stroke="black" points="161.09,-149.757 151.31,-153.83 161.496,-156.745 161.09,-149.757"/>
</g>
<!-- Libby -->
<g id="node18" class="node"><title>Libby</title>
<ellipse fill="none" stroke="black" cx="34" cy="-305.7" rx="34" ry="18"/>
<text text-anchor="middle" x="34" y="-302" font-family="Times,serif" font-size="14.00">Libby</text>
</g>
<!-- Cheney&#45;&gt;Libby -->
<g id="edge18" class="edge"><title>Cheney&#45;&gt;Libby</title>
<path fill="none" stroke="black" d="M118.68,-258.87C103.18,-267.45 83.152,-278.52 66.467,-287.75"/>
<polygon fill="black" stroke="black" points="64.6546,-284.753 57.592,-292.65 68.0381,-290.881 64.6546,-284.753"/>
</g>
<!-- Myers -->
<g id="node20" class="node"><title>Myers</title>
<ellipse fill="none" stroke="black" cx="486.29" cy="-97.025" rx="34.5" ry="18"/>
<text text-anchor="middle" x="486.29" y="-93.325" font-family="Times,serif" font-size="14.00">Myers</text>
</g>
<!-- Rumsfeld&#45;&gt;Myers -->
<g id="edge20" class="edge"><title>Rumsfeld&#45;&gt;Myers</title>
<path fill="none" stroke="black" d="M400.6,-155.32C417,-144.16 439.15,-129.09 456.83,-117.06"/>
<polygon fill="black" stroke="black" points="458.796,-119.956 465.1,-111.44 454.862,-114.166 458.796,-119.956"/>
</g>
<!-- Feith -->
<g id="node22" class="node"><title>Feith</title>
<ellipse fill="none" stroke="black" cx="473.93" cy="-249.76" rx="30" ry="18"/>
<text text-anchor="middle" x="473.93" y="-246.06" font-family="Times,serif" font-size="14.00">Feith</text>
</g>
<!-- Rumsfeld&#45;&gt;Feith -->
<g id="edge22" class="edge"><title>Rumsfeld&#45;&gt;Feith</title>
<path fill="none" stroke="black" d="M397.51,-187.33C412.16,-199.3 432.19,-215.66 448.06,-228.63"/>
<polygon fill="black" stroke="black" points="445.972,-231.443 455.93,-235.06 450.4,-226.023 445.972,-231.443"/>
</g>
<!-- Armitage -->
<g id="node24" class="node"><title>Armitage</title>
<ellipse fill="none" stroke="black" cx="279.54" cy="-401.52" rx="46.2923" ry="18"/>
<text text-anchor="middle" x="279.54" y="-397.82" font-family="Times,serif" font-size="14.00">Armitage</text>
</g>
<!-- Powell&#45;&gt;Armitage -->
<g id="edge24" class="edge"><title>Powell&#45;&gt;Armitage</title>
<path fill="none" stroke="black" d="M268.04,-294.95C270.26,-315.54 273.92,-349.4 276.51,-373.42"/>
<polygon fill="black" stroke="black" points="273.03,-373.792 277.58,-383.36 279.99,-373.043 273.03,-373.792"/>
</g>
</g>
</svg>
